<svg width="320" height="121" viewBox="0 0 320 121" fill="none" xmlns="http://www.w3.org/2000/svg">
<path d="M8.13948 16.279H12.2092V20.3488H8.13948V16.279ZM4.06971 20.3488H8.13948V24.4186H4.06971V20.3488ZM12.2092 12.2093H16.279V16.279H12.2092V12.2093ZM16.279 8.13949H20.3488V12.2093H16.279V8.13949ZM24.4185 -4.17829e-05H28.4883V4.06972H24.4185V-4.17829e-05ZM24.4185 4.06972H28.4883V8.13949H24.4185V4.06972ZM32.5581 -4.17829e-05H36.6278V4.06972H32.5581V-4.17829e-05ZM32.5581 4.06972H36.6278V8.13949H32.5581V4.06972ZM28.4883 4.06972H32.5581V8.13949H28.4883V4.06972ZM28.4883 -4.17829e-05H32.5581V4.06972H28.4883V-4.17829e-05ZM36.6278 -4.17829e-05H40.6976V4.06972H36.6278V-4.17829e-05ZM40.6976 4.06972H44.7674V8.13949H40.6976V4.06972ZM36.6278 4.06972H40.6976V8.13949H36.6278V4.06972ZM48.8372 4.06972H52.9069V8.13949H48.8372V4.06972ZM44.7674 4.06972H48.8372V8.13949H44.7674V4.06972ZM56.9767 8.13949H61.0465V12.2093H56.9767V8.13949ZM56.9767 12.2093H61.0465V16.279H56.9767V12.2093ZM56.9767 16.279H61.0465V20.3488H56.9767V16.279ZM52.9069 12.2093H56.9767V16.279H52.9069V12.2093ZM52.9069 8.13949H56.9767V12.2093H52.9069V8.13949ZM52.9069 4.06972H56.9767V8.13949H52.9069V4.06972ZM81.3953 4.06972H85.4651V8.13949H81.3953V4.06972ZM85.4651 -4.17829e-05H89.5348V4.06972H85.4651V-4.17829e-05ZM89.5348 -4.17829e-05H93.6046V4.06972H89.5348V-4.17829e-05ZM89.5348 4.06972H93.6046V8.13949H89.5348V4.06972ZM85.4651 4.06972H89.5348V8.13949H85.4651V4.06972ZM97.6744 8.13949H101.744V12.2093H97.6744V8.13949ZM61.0465 12.2093H65.1162V16.279H61.0465V12.2093ZM61.0465 16.279H65.1162V20.3488H61.0465V16.279ZM65.1162 16.279H69.186V20.3488H65.1162V16.279ZM69.186 16.279H73.2558V20.3488H69.186V16.279ZM73.2558 16.279H77.3255V20.3488H73.2558V16.279ZM73.2558 20.3488H77.3255V24.4186H73.2558V20.3488ZM69.186 20.3488H73.2558V24.4186H69.186V20.3488ZM65.1162 20.3488H69.186V24.4186H65.1162V20.3488ZM44.7674 24.4186H48.8372V28.4883H44.7674V24.4186ZM44.7674 28.4883H48.8372V32.5581H44.7674V28.4883ZM65.1162 24.4186H69.186V28.4883H65.1162V24.4186ZM69.186 24.4186H73.2558V28.4883H69.186V24.4186ZM73.2558 24.4186H77.3255V28.4883H73.2558V24.4186ZM73.2558 28.4883H77.3255V32.5581H73.2558V28.4883ZM69.186 32.5581H73.2558V36.6279H69.186V32.5581ZM65.1162 32.5581H69.186V36.6279H65.1162V32.5581ZM69.186 28.4883H73.2558V32.5581H69.186V28.4883ZM65.1162 28.4883H69.186V32.5581H65.1162V28.4883ZM61.0465 36.6279H65.1162V40.6976H61.0465V36.6279ZM61.0465 32.5581H65.1162V36.6279H61.0465V32.5581ZM65.1162 36.6279H69.186V40.6976H65.1162V36.6279ZM69.186 36.6279H73.2558V40.6976H69.186V36.6279ZM40.6976 24.4186H44.7674V28.4883H40.6976V24.4186ZM40.6976 28.4883H44.7674V32.5581H40.6976V28.4883ZM40.6976 32.5581H44.7674V36.6279H40.6976V32.5581ZM40.6976 36.6279H44.7674V40.6976H40.6976V36.6279ZM44.7674 56.9767H48.8372V61.0465H44.7674V56.9767ZM48.8372 56.9767H52.9069V61.0465H48.8372V56.9767ZM61.0465 40.6976H65.1162V44.7674H61.0465V40.6976ZM61.0465 44.7674H65.1162V48.8372H61.0465V44.7674ZM61.0465 48.8372H65.1162V52.9069H61.0465V48.8372ZM61.0465 52.9069H65.1162V56.9767H61.0465V52.9069ZM65.1162 40.6976H69.186V44.7674H65.1162V40.6976ZM65.1162 44.7674H69.186V48.8372H65.1162V44.7674ZM65.1162 48.8372H69.186V52.9069H65.1162V48.8372ZM65.1162 52.9069H69.186V56.9767H65.1162V52.9069ZM61.0465 61.0465H65.1162V65.1162H61.0465V61.0465ZM65.1162 61.0465H69.186V65.1162H65.1162V61.0465ZM69.186 56.9767H73.2558V61.0465H69.186V56.9767ZM69.186 52.9069H73.2558V56.9767H69.186V52.9069ZM69.186 48.8372H73.2558V52.9069H69.186V48.8372ZM69.186 44.7674H73.2558V48.8372H69.186V44.7674ZM69.186 40.6976H73.2558V44.7674H69.186V40.6976ZM69.186 61.0465H73.2558V65.1162H69.186V61.0465ZM73.2558 65.1162H77.3255V69.186H73.2558V65.1162ZM73.2558 69.186H77.3255V73.2558H73.2558V69.186ZM69.186 69.186H73.2558V73.2558H69.186V69.186ZM65.1162 69.186H69.186V73.2558H65.1162V69.186ZM61.0465 69.186H65.1162V73.2558H61.0465V69.186ZM61.0465 65.1162H65.1162V69.186H61.0465V65.1162ZM65.1162 65.1162H69.186V69.186H65.1162V65.1162ZM69.186 65.1162H73.2558V69.186H69.186V65.1162ZM20.3488 77.3255H24.4185V81.3953H20.3488V77.3255ZM16.279 81.3953H20.3488V85.4651H16.279V81.3953ZM12.2092 85.4651H16.279V89.5348H12.2092V85.4651ZM61.0465 73.2558H65.1162V77.3255H61.0465V73.2558ZM65.1162 73.2558H69.186V77.3255H65.1162V73.2558ZM69.186 73.2558H73.2558V77.3255H69.186V73.2558ZM73.2558 73.2558H77.3255V77.3255H73.2558V73.2558ZM16.279 85.4651H20.3488V89.5348H16.279V85.4651ZM20.3488 85.4651H24.4185V89.5348H20.3488V85.4651ZM20.3488 89.5348H24.4185V93.6046H20.3488V89.5348ZM16.279 89.5348H20.3488V93.6046H16.279V89.5348ZM24.4185 89.5348H28.4883V93.6046H24.4185V89.5348ZM44.7674 85.4651H48.8372V89.5348H44.7674V85.4651ZM44.7674 89.5348H48.8372V93.6046H44.7674V89.5348ZM40.6976 89.5348H44.7674V93.6046H40.6976V89.5348ZM48.8372 81.3953H52.9069V85.4651H48.8372V81.3953ZM61.0465 77.3255H65.1162V81.3953H61.0465V77.3255ZM65.1162 77.3255H69.186V81.3953H65.1162V77.3255ZM69.186 77.3255H73.2558V81.3953H69.186V77.3255ZM73.2558 77.3255H77.3255V81.3953H73.2558V77.3255ZM73.2558 81.3953H77.3255V85.4651H73.2558V81.3953ZM69.186 81.3953H73.2558V85.4651H69.186V81.3953ZM65.1162 81.3953H69.186V85.4651H65.1162V81.3953ZM61.0465 81.3953H65.1162V85.4651H61.0465V81.3953ZM61.0465 85.4651H65.1162V89.5348H61.0465V85.4651ZM61.0465 89.5348H65.1162V93.6046H61.0465V89.5348ZM65.1162 89.5348H69.186V93.6046H65.1162V89.5348ZM69.186 89.5348H73.2558V93.6046H69.186V89.5348ZM69.186 85.4651H73.2558V89.5348H69.186V85.4651ZM73.2558 85.4651H77.3255V89.5348H73.2558V85.4651ZM65.1162 85.4651H69.186V89.5348H65.1162V85.4651ZM73.2558 89.5348H77.3255V93.6046H73.2558V89.5348ZM69.186 93.6046H73.2558V97.6744H69.186V93.6046ZM69.186 97.6744H73.2558V101.744H69.186V97.6744ZM73.2558 97.6744H77.3255V101.744H73.2558V97.6744ZM73.2558 93.6046H77.3255V97.6744H73.2558V93.6046ZM81.3953 93.6046H85.4651V97.6744H81.3953V93.6046ZM81.3953 97.6744H85.4651V101.744H81.3953V97.6744ZM77.3255 97.6744H81.3953V101.744H77.3255V97.6744ZM89.5348 85.4651H93.6046V89.5348H89.5348V85.4651ZM89.5348 89.5348H93.6046V93.6046H89.5348V89.5348ZM85.4651 89.5348H89.5348V93.6046H85.4651V89.5348ZM85.4651 93.6046H89.5348V97.6744H85.4651V93.6046ZM65.1162 93.6046H69.186V97.6744H65.1162V93.6046ZM36.6278 93.6046H40.6976V97.6744H36.6278V93.6046ZM32.5581 93.6046H36.6278V97.6744H32.5581V93.6046ZM32.5581 97.6744H36.6278V101.744H32.5581V97.6744ZM36.6278 97.6744H40.6976V101.744H36.6278V97.6744ZM28.4883 93.6046H32.5581V97.6744H28.4883V93.6046ZM24.4185 97.6744H28.4883V101.744H24.4185V97.6744ZM28.4883 97.6744H32.5581V101.744H28.4883V97.6744ZM24.4185 93.6046H28.4883V97.6744H24.4185V93.6046ZM40.6976 93.6046H44.7674V97.6744H40.6976V93.6046ZM48.8372 85.4651H52.9069V89.5348H48.8372V85.4651ZM93.6046 4.06972H97.6744V8.13949H93.6046V4.06972ZM8.13948 89.5348H12.2092V93.6046H8.13948V89.5348ZM20.3488 81.3953H24.4185V85.4651H20.3488V81.3953ZM77.3255 93.6046H81.3953V97.6744H77.3255V93.6046ZM4.06971 93.6046H8.13948V97.6744H4.06971V93.6046ZM40.6976 52.9069H44.7674V56.9767H40.6976V52.9069ZM40.6976 44.7674H44.7674V48.8372H40.6976V44.7674ZM40.6976 48.8372H44.7674V52.9069H40.6976V48.8372ZM40.6976 40.6976H44.7674V44.7674H40.6976V40.6976ZM44.7674 32.5581H48.8372V36.6279H44.7674V32.5581ZM44.7674 36.6279H48.8372V40.6976H44.7674V36.6279ZM28.4883 69.186H32.5581V73.2558H28.4883V69.186ZM48.8372 8.13949H52.9069V12.2093H48.8372V8.13949ZM73.2558 61.0465H77.3255V65.1162H73.2558V61.0465ZM20.3488 93.6046H24.4185V97.6744H20.3488V93.6046ZM32.5581 20.3488H36.6278V24.4186H32.5581V20.3488ZM36.6278 20.3488H40.6976V24.4186H36.6278V20.3488ZM40.6976 20.3488H44.7674V24.4186H40.6976V20.3488ZM40.6976 -4.17829e-05H44.7674V4.06972H40.6976V-4.17829e-05ZM36.6278 61.0465H40.6976V65.1162H36.6278V61.0465ZM93.6046 81.3953H97.6744V85.4651H93.6046V81.3953ZM24.4185 73.2558H28.4883V77.3255H24.4185V73.2558ZM32.5581 65.1162H36.6278V69.186H32.5581V65.1162ZM32.5581 69.186H36.6278V73.2558H32.5581V69.186ZM28.4883 73.2558H32.5581V77.3255H28.4883V73.2558ZM24.4185 77.3255H28.4883V81.3953H24.4185V77.3255ZM24.4185 81.3953H28.4883V85.4651H24.4185V81.3953ZM40.6976 56.9767H44.7674V61.0465H40.6976V56.9767ZM52.9069 56.9767H56.9767V61.0465H52.9069V56.9767ZM40.6976 61.0465H44.7674V65.1162H40.6976V61.0465ZM44.7674 61.0465H48.8372V65.1162H44.7674V61.0465ZM48.8372 61.0465H52.9069V65.1162H48.8372V61.0465ZM44.7674 40.6976H48.8372V44.7674H44.7674V40.6976ZM93.6046 85.4651H97.6744V89.5348H93.6046V85.4651ZM77.3255 89.5348H81.3953V93.6046H77.3255V89.5348ZM77.3255 8.13949H81.3953V12.2093H77.3255V8.13949ZM101.744 12.2093H105.814V16.279H101.744V12.2093ZM44.7674 44.7674H48.8372V48.8372H44.7674V44.7674ZM44.7674 48.8372H48.8372V52.9069H44.7674V48.8372ZM44.7674 52.9069H48.8372V56.9767H44.7674V52.9069ZM65.1162 56.9767H69.186V61.0465H65.1162V56.9767ZM61.0465 56.9767H65.1162V61.0465H61.0465V56.9767ZM81.3953 89.5348H85.4651V93.6046H81.3953V89.5348ZM28.4883 89.5348H32.5581V93.6046H28.4883V89.5348ZM32.5581 89.5348H36.6278V93.6046H32.5581V89.5348ZM36.6278 89.5348H40.6976V93.6046H36.6278V89.5348ZM-5.67921e-05 97.6744H4.06971V101.744H-5.67921e-05V97.6744ZM44.7674 -4.17829e-05H48.8372V4.06972H44.7674V-4.17829e-05ZM8.13948 85.4651H12.2092V89.5348H8.13948V85.4651ZM4.06971 89.5348H8.13948V93.6046H4.06971V89.5348ZM-5.67921e-05 93.6046H4.06971V97.6744H-5.67921e-05V93.6046ZM12.2092 89.5348H16.279V93.6046H12.2092V89.5348ZM56.9767 56.9767H61.0465V61.0465H56.9767V56.9767ZM52.9069 61.0465H56.9767V65.1162H52.9069V61.0465ZM61.0465 20.3488H65.1162V24.4186H61.0465V20.3488ZM69.186 12.2093H73.2558V16.279H69.186V12.2093ZM73.2558 12.2093H77.3255V16.279H73.2558V12.2093ZM65.1162 12.2093H69.186V16.279H65.1162V12.2093ZM61.0465 8.13949H65.1162V12.2093H61.0465V8.13949ZM44.7674 8.13949H48.8372V12.2093H44.7674V8.13949ZM61.0465 24.4186H65.1162V28.4883H61.0465V24.4186ZM12.2092 81.3953H16.279V85.4651H12.2092V81.3953ZM24.4185 85.4651H28.4883V89.5348H24.4185V85.4651ZM28.4883 85.4651H32.5581V89.5348H28.4883V85.4651ZM36.6278 16.279H40.6976V20.3488H36.6278V16.279ZM48.8372 12.2093H52.9069V16.279H48.8372V12.2093ZM52.9069 16.279H56.9767V20.3488H52.9069V16.279ZM56.9767 20.3488H61.0465V24.4186H56.9767V20.3488ZM61.0465 28.4883H65.1162V32.5581H61.0465V28.4883ZM48.8372 28.4883H52.9069V32.5581H48.8372V28.4883ZM48.8372 32.5581H52.9069V36.6279H48.8372V32.5581ZM48.8372 36.6279H52.9069V40.6976H48.8372V36.6279ZM48.8372 40.6976H52.9069V44.7674H48.8372V40.6976ZM48.8372 44.7674H52.9069V48.8372H48.8372V44.7674ZM48.8372 48.8372H52.9069V52.9069H48.8372V48.8372ZM48.8372 52.9069H52.9069V56.9767H48.8372V52.9069ZM28.4883 24.4186H32.5581V28.4883H28.4883V24.4186ZM24.4185 28.4883H28.4883V32.5581H24.4185V28.4883ZM20.3488 32.5581H24.4185V36.6279H20.3488V32.5581ZM32.5581 24.4186H36.6278V28.4883H32.5581V24.4186ZM28.4883 28.4883H32.5581V32.5581H28.4883V28.4883ZM24.4185 32.5581H28.4883V36.6279H24.4185V32.5581ZM20.3488 36.6279H24.4185V40.6976H20.3488V36.6279ZM36.6278 24.4186H40.6976V28.4883H36.6278V24.4186ZM36.6278 28.4883H40.6976V32.5581H36.6278V28.4883ZM81.3953 8.13949H85.4651V12.2093H81.3953V8.13949ZM77.3255 12.2093H81.3953V16.279H77.3255V12.2093ZM93.6046 8.13949H97.6744V12.2093H93.6046V8.13949ZM89.5348 8.13949H93.6046V12.2093H89.5348V8.13949ZM93.6046 12.2093H97.6744V16.279H93.6046V12.2093ZM97.6744 12.2093H101.744V16.279H97.6744V12.2093ZM85.4651 8.13949H89.5348V12.2093H85.4651V8.13949ZM89.5348 12.2093H93.6046V16.279H89.5348V12.2093ZM93.6046 16.279H97.6744V20.3488H93.6046V16.279ZM97.6744 16.279H101.744V20.3488H97.6744V16.279ZM85.4651 12.2093H89.5348V16.279H85.4651V12.2093ZM89.5348 16.279H93.6046V20.3488H89.5348V16.279ZM93.6046 20.3488H97.6744V24.4186H93.6046V20.3488ZM4.06971 24.4186H8.13948V28.4883H4.06971V24.4186ZM8.13948 20.3488H12.2092V24.4186H8.13948V20.3488ZM12.2092 16.279H16.279V20.3488H12.2092V16.279ZM16.279 12.2093H20.3488V16.279H16.279V12.2093ZM20.3488 8.13949H24.4185V12.2093H20.3488V8.13949ZM20.3488 4.06972H24.4185V8.13949H20.3488V4.06972ZM48.8372 -4.17829e-05H52.9069V4.06972H48.8372V-4.17829e-05ZM56.9767 4.06972H61.0465V8.13949H56.9767V4.06972ZM65.1162 8.13949H69.186V12.2093H65.1162V8.13949ZM61.0465 4.06972H65.1162V8.13949H61.0465V4.06972ZM56.9767 -4.17829e-05H61.0465V4.06972H56.9767V-4.17829e-05ZM52.9069 -4.17829e-05H56.9767V4.06972H52.9069V-4.17829e-05ZM32.5581 28.4883H36.6278V32.5581H32.5581V28.4883ZM36.6278 32.5581H40.6976V36.6279H36.6278V32.5581ZM32.5581 32.5581H36.6278V36.6279H32.5581V32.5581ZM36.6278 36.6279H40.6976V40.6976H36.6278V36.6279ZM40.6976 65.1162H44.7674V69.186H40.6976V65.1162ZM36.6278 65.1162H40.6976V69.186H36.6278V65.1162ZM36.6278 69.186H40.6976V73.2558H36.6278V69.186ZM32.5581 73.2558H36.6278V77.3255H32.5581V73.2558ZM28.4883 77.3255H32.5581V81.3953H28.4883V77.3255ZM73.2558 56.9767H77.3255V61.0465H73.2558V56.9767ZM73.2558 52.9069H77.3255V56.9767H73.2558V52.9069ZM73.2558 48.8372H77.3255V52.9069H73.2558V48.8372ZM73.2558 44.7674H77.3255V48.8372H73.2558V44.7674ZM73.2558 40.6976H77.3255V44.7674H73.2558V40.6976ZM73.2558 36.6279H77.3255V40.6976H73.2558V36.6279ZM73.2558 32.5581H77.3255V36.6279H73.2558V32.5581ZM112.119 120.944V118.844C115.719 118.844 117.819 118.177 118.419 116.844V63.8441C118.419 63.8441 116.319 63.6775 112.119 63.3441V61.0441C113.386 61.0441 115.853 60.3441 119.519 58.9441C123.253 57.4775 125.886 56.7441 127.419 56.7441V60.0441C130.619 57.8441 134.619 56.7441 139.419 56.7441C141.619 56.7441 143.786 57.1441 145.919 57.9441C148.119 58.6775 150.286 59.8775 152.419 61.5441C154.619 63.1441 156.386 65.5441 157.719 68.7441C159.119 71.9441 159.819 75.6775 159.819 79.9441C159.819 87.3441 157.753 93.0108 153.619 96.9441C149.486 100.811 144.019 102.744 137.219 102.744C133.353 102.744 130.086 102.011 127.419 100.544V116.844C128.019 118.177 130.119 118.844 133.719 118.844V120.944H112.119ZM127.419 97.3441C129.953 98.6775 133.019 99.3441 136.619 99.3441C140.286 99.3441 143.486 97.6441 146.219 94.2441C148.953 90.8441 150.319 86.0775 150.319 79.9441C150.319 75.8775 149.119 71.5775 146.719 67.0441C144.386 62.4441 141.619 60.1441 138.419 60.1441C133.819 60.1441 130.153 61.2108 127.419 63.3441V97.3441ZM177.228 76.9441C177.228 84.5441 178.661 90.2441 181.528 94.0441C184.461 97.8441 188.195 99.7441 192.728 99.7441C196.328 99.7441 199.228 98.1441 201.428 94.9441C203.628 91.6775 204.728 87.5108 204.728 82.4441C204.728 67.3775 199.495 59.8441 189.028 59.8441C185.495 59.8441 182.628 61.5441 180.428 64.9441C178.295 68.2775 177.228 72.2775 177.228 76.9441ZM191.428 102.744C183.961 102.744 178.128 100.577 173.928 96.2441C169.728 91.8441 167.628 86.0775 167.628 78.9441C167.628 72.4775 169.528 67.1775 173.328 63.0441C177.128 58.8441 182.928 56.7441 190.728 56.7441C198.595 56.7441 204.495 58.8441 208.428 63.0441C212.361 67.1775 214.328 72.8775 214.328 80.1441C214.328 86.6108 212.428 92.0108 208.628 96.3441C204.895 100.611 199.161 102.744 191.428 102.744ZM219.93 101.744V99.6441C223.53 99.6441 225.63 98.9775 226.23 97.6441V45.8441C222.096 45.5108 219.996 45.3441 219.93 45.3441V43.0441C221.196 43.0441 223.663 42.3441 227.33 40.9441C231.063 39.4775 233.696 38.7441 235.23 38.7441V97.6441C235.83 98.9775 237.93 99.6441 241.53 99.6441V101.744H219.93ZM245.711 101.744V99.6441C249.311 99.6441 251.411 98.9775 252.011 97.6441V45.8441C247.878 45.5108 245.778 45.3441 245.711 45.3441V43.0441C246.978 43.0441 249.444 42.3441 253.111 40.9441C256.844 39.4775 259.478 38.7441 261.011 38.7441V97.6441C261.611 98.9775 263.711 99.6441 267.311 99.6441V101.744H245.711ZM282.501 76.9441C282.501 84.5441 283.935 90.2441 286.801 94.0441C289.735 97.8441 293.468 99.7441 298.001 99.7441C301.601 99.7441 304.501 98.1441 306.701 94.9441C308.901 91.6775 310.001 87.5108 310.001 82.4441C310.001 67.3775 304.768 59.8441 294.301 59.8441C290.768 59.8441 287.901 61.5441 285.701 64.9441C283.568 68.2775 282.501 72.2775 282.501 76.9441ZM296.701 102.744C289.235 102.744 283.401 100.577 279.201 96.2441C275.001 91.8441 272.901 86.0775 272.901 78.9441C272.901 72.4775 274.801 67.1775 278.601 63.0441C282.401 58.8441 288.201 56.7441 296.001 56.7441C303.868 56.7441 309.768 58.8441 313.701 63.0441C317.635 67.1775 319.601 72.8775 319.601 80.1441C319.601 86.6108 317.701 92.0108 313.901 96.3441C310.168 100.611 304.435 102.744 296.701 102.744Z" fill="black"/>
</svg>
